<svg id="cam-icon-sprite" aria-hidden="true" style="position: absolute; width: 0; height: 0; visibility: hidden;">
  <symbol id="icon-add" viewBox="0 0 24 24">
    <g fill="none" stroke="currentColor" stroke-width="2" stroke-linecap="round" stroke-linejoin="round">
      <path d="M12 5v14M5 12h14"/>
    </g>
  </symbol>
  <symbol id="icon-check" viewBox="0 0 24 24">
    <g fill="none" stroke="currentColor" stroke-width="3" stroke-linecap="round" stroke-linejoin="round">
      <polyline points="20 6 9 17 4 12"/>
    </g>
  </symbol>
  <symbol id="icon-chevron-down" viewBox="0 0 24 24">
    <g fill="none" stroke="currentColor" stroke-width="2" stroke-linecap="round" stroke-linejoin="round">
      <polyline points="6 9 12 15 18 9"/>
    </g>
  </symbol>
  <symbol id="icon-chevron-right" viewBox="0 0 24 24">
    <g fill="none" stroke="currentColor" stroke-width="2" stroke-linecap="round" stroke-linejoin="round">
      <polyline points="9 18 15 12 9 6"/>
    </g>
  </symbol>
  <symbol id="icon-close" viewBox="0 0 24 24">
    <g fill="none" stroke="currentColor" stroke-width="2.5" stroke-linecap="round" stroke-linejoin="round">
      <line x1="18" y1="6" x2="6" y2="18"/><line x1="6" y1="6" x2="18" y2="18"/>
    </g>
  </symbol>
  <symbol id="icon-cnc" viewBox="0 0 24 24">
    <g fill="none" stroke="currentColor" stroke-width="1.5" stroke-linecap="round" stroke-linejoin="round">
      <circle cx="12" cy="12" r="3"/>
  <path d="M12 2v4M12 18v4M4.93 4.93l2.83 2.83M16.24 16.24l2.83 2.83M2 12h4M18 12h4M4.93 19.07l2.83-2.83M16.24 7.76l2.83-2.83"/>
    </g>
  </symbol>
  <symbol id="icon-copy" viewBox="0 0 24 24">
    <g fill="none" stroke="currentColor" stroke-width="2" stroke-linecap="round" stroke-linejoin="round">
      <rect x="9" y="9" width="13" height="13" rx="2" ry="2"/>
  <path d="M5 15H4a2 2 0 0 1-2-2V4a2 2 0 0 1 2-2h9a2 2 0 0 1 2 2v1"/>
    </g>
  </symbol>
  <symbol id="icon-delete" viewBox="0 0 20 20">
    <g fill="none" stroke="currentColor" stroke-width="1.5" stroke-linecap="round" stroke-linejoin="round">
      <line x1="5" y1="5" x2="15" y2="15"/><line x1="15" y1="5" x2="5" y2="15"/>
    </g>
  </symbol>
  <symbol id="icon-drag-handle" viewBox="0 0 24 24">
    <g fill="none" stroke="currentColor" stroke-width="2" stroke-linecap="round" stroke-linejoin="round">
      <line x1="4" y1="6" x2="20" y2="6"/><line x1="4" y1="12" x2="20" y2="12"/><line x1="4" y1="18" x2="20" y2="18"/>
    </g>
  </symbol>
  <symbol id="icon-eye-off" viewBox="0 0 24 24">
    <g fill="none" stroke="currentColor" stroke-width="2" stroke-linecap="round" stroke-linejoin="round">
      <path d="M17.94 17.94A10.94 10.94 0 0 1 12 19c-7 0-11-7-11-7a18.86 18.86 0 0 1 5.06-5.94M9.9 4.24A10.85 10.85 0 0 1 12 4c7 0 11 7 11 7a18.5 18.5 0 0 1-2.16 3.19m-6.72-1.07a3 3 0 1 1-4.24-4.24"/>
  <line x1="1" y1="1" x2="23" y2="23"/>
    </g>
  </symbol>
  <symbol id="icon-eye" viewBox="0 0 24 24">
    <g fill="none" stroke="currentColor" stroke-width="2" stroke-linecap="round" stroke-linejoin="round">
      <path d="M1 12s4-7 11-7 11 7 11 7-4 7-11 7-11-7-11-7z"/><circle cx="12" cy="12" r="3"/>
    </g>
  </symbol>
  <symbol id="icon-file" viewBox="0 0 24 24">
    <g fill="none" stroke="currentColor" stroke-width="2" stroke-linecap="round" stroke-linejoin="round">
      <path d="M14 2H6a2 2 0 0 0-2 2v16a2 2 0 0 0 2 2h12a2 2 0 0 0 2-2V8z"/>
  <polyline points="14 2 14 8 20 8"/>
    </g>
  </symbol>
  <symbol id="icon-folder-open" viewBox="0 0 24 24">
    <g fill="none" stroke="currentColor" stroke-width="2" stroke-linecap="round" stroke-linejoin="round">
      <path d="M22 19a2 2 0 0 1-2 2H4a2 2 0 0 1-2-2V5a2 2 0 0 1 2-2h5l2 3h9a2 2 0 0 1 2 2z"/>
    </g>
  </symbol>
  <symbol id="icon-gear" viewBox="0 0 24 24">
    <g fill="none" stroke="currentColor" stroke-width="2" stroke-linecap="round" stroke-linejoin="round">
      <circle cx="12" cy="12" r="3"/>
  <path d="M19.4 15a1.65 1.65 0 0 0 .33 1.82l.06.06a2 2 0 1 1-2.83 2.83l-.06-.06a1.65 1.65 0 0 0-1.82-.33 1.65 1.65 0 0 0-1 1.51V21a2 2 0 0 1-4 0v-.09A1.65 1.65 0 0 0 9 19.4a1.65 1.65 0 0 0-1.82.33l-.06.06a2 2 0 1 1-2.83-2.83l.06-.06A1.65 1.65 0 0 0 4.68 15a1.65 1.65 0 0 0-1.51-1H3a2 2 0 0 1 0-4h.09A1.65 1.65 0 0 0 4.6 9a1.65 1.65 0 0 0-.33-1.82l-.06-.06a2 2 0 1 1 2.83-2.83l.06.06A1.65 1.65 0 0 0 9 4.68a1.65 1.65 0 0 0 1-1.51V3a2 2 0 0 1 4 0v.09a1.65 1.65 0 0 0 1 1.51 1.65 1.65 0 0 0 1.82-.33l.06-.06a2 2 0 1 1 2.83 2.83l-.06.06A1.65 1.65 0 0 0 19.4 9a1.65 1.65 0 0 0 1.51 1H21a2 2 0 0 1 0 4h-.09a1.65 1.65 0 0 0-1.51 1z"/>
    </g>
  </symbol>
  <symbol id="icon-group" viewBox="0 0 24 24">
    <g fill="none" stroke="currentColor" stroke-width="2" stroke-linecap="round" stroke-linejoin="round">
      <path d="M22 19a2 2 0 0 1-2 2H4a2 2 0 0 1-2-2V5a2 2 0 0 1 2-2h5l2 3h9a2 2 0 0 1 2 2z"/>
  <line x1="12" y1="11" x2="12" y2="17"/><line x1="9" y1="14" x2="15" y2="14"/>
    </g>
  </symbol>
  <symbol id="icon-heart" viewBox="0 0 24 24">
    <g fill="none" stroke="currentColor" stroke-width="2" stroke-linecap="round" stroke-linejoin="round">
      <path d="M20.84 4.61a5.5 5.5 0 0 0-7.78 0L12 5.67l-1.06-1.06a5.5 5.5 0 0 0-7.78 7.78l1.06 1.06L12 21.23l7.78-7.78 1.06-1.06a5.5 5.5 0 0 0 0-7.78z"/>
    </g>
  </symbol>
  <symbol id="icon-help" viewBox="0 0 24 24">
    <g fill="none" stroke="currentColor" stroke-width="2" stroke-linecap="round" stroke-linejoin="round">
      <circle cx="12" cy="12" r="10"/>
  <path d="M9.09 9a3 3 0 0 1 5.83 1c0 2-3 3-3 3"/>
  <line x1="12" y1="17" x2="12.01" y2="17"/>
    </g>
  </symbol>
  <symbol id="icon-image" viewBox="0 0 24 24">
    <g fill="none" stroke="currentColor" stroke-width="2" stroke-linecap="round" stroke-linejoin="round">
      <rect x="3" y="3" width="18" height="18" rx="2" ry="2"/>
  <circle cx="8.5" cy="8.5" r="1.5"/><polyline points="21 15 16 10 5 21"/>
    </g>
  </symbol>
  <symbol id="icon-laser-fiber" viewBox="0 0 24 24">
    <g fill="none" stroke="currentColor" stroke-width="1.5" stroke-linecap="round" stroke-linejoin="round">
      <circle cx="12" cy="12" r="4"/>
  <path d="M12 2v4"/><path d="M12 18v4"/>
  <path d="M2 12h4"/><path d="M18 12h4"/>
    </g>
  </symbol>
  <symbol id="icon-laser-type" viewBox="0 0 24 24">
    <g fill="none" stroke="currentColor" stroke-width="2.5" stroke-linecap="round" stroke-linejoin="round">
      <line x1="18" y1="6" x2="6" y2="18"></line>
  <line x1="6" y1="6" x2="18" y2="18"></line>
    </g>
  </symbol>
  <symbol id="icon-laser-uv" viewBox="0 0 24 24">
    <g fill="none" stroke="currentColor" stroke-width="1.5" stroke-linecap="round" stroke-linejoin="round">
      <path d="M12 2v8"/><path d="M12 14v8"/><circle cx="12" cy="12" r="2"/>
  <path d="M4.93 4.93l4.24 4.24"/><path d="M14.83 14.83l4.24 4.24"/>
    </g>
  </symbol>
  <symbol id="icon-laser" viewBox="0 0 24 24">
    <g fill="none" stroke="currentColor" stroke-width="1.5" stroke-linecap="round" stroke-linejoin="round">
      <path d="M12 2v8"/><path d="M12 14v8"/><circle cx="12" cy="12" r="2"/>
  <path d="M4.93 4.93l4.24 4.24"/><path d="M14.83 14.83l4.24 4.24"/>
    </g>
  </symbol>
  <symbol id="icon-lock-locked" viewBox="0 0 24 24">
    <g fill="none" stroke="currentColor" stroke-width="2" stroke-linecap="round" stroke-linejoin="round">
      <rect x="5" y="11" width="14" height="10" rx="1.5"/><path d="M8 11V7a4 4 0 0 1 8 0v4"/>
    </g>
  </symbol>
  <symbol id="icon-lock-unlocked" viewBox="0 0 24 24">
    <g fill="none" stroke="currentColor" stroke-width="2" stroke-linecap="round" stroke-linejoin="round">
      <rect x="5" y="11" width="14" height="10" rx="1.5"/><path d="M8 11V7a4 4 0 0 1 8 0v4" stroke-dasharray="2 2"/>
    </g>
  </symbol>
  <symbol id="icon-menu" viewBox="0 0 20 20">
    <g fill="none" stroke="currentColor" stroke-width="2" stroke-linecap="round" stroke-linejoin="round">
      <rect x="2" y="4" width="16" height="2" fill="currentColor"/><rect x="2" y="9" width="16" height="2" fill="currentColor"/><rect x="2" y="14" width="16" height="2" fill="currentColor"/>
    </g>
  </symbol>
  <symbol id="icon-mirror-h" viewBox="0 0 20 20">
    <g fill="none" stroke="currentColor" stroke-width="1.5" stroke-linecap="round" stroke-linejoin="round">
      <line x1="10" y1="2" x2="10" y2="18"/>
  <path d="M7 6L3 10L7 14" fill="currentColor" stroke="none"/><path d="M13 6L17 10L13 14" fill="currentColor" stroke="none"/>
    </g>
  </symbol>
  <symbol id="icon-mirror-v" viewBox="0 0 20 20">
    <g fill="none" stroke="currentColor" stroke-width="1.5" stroke-linecap="round" stroke-linejoin="round">
      <line x1="2" y1="10" x2="18" y2="10"/>
  <path d="M6 7L10 3L14 7" fill="currentColor" stroke="none"/><path d="M6 13L10 17L14 13" fill="currentColor" stroke="none"/>
    </g>
  </symbol>
  <symbol id="icon-moon" viewBox="0 0 24 24">
    <g fill="none" stroke="currentColor" stroke-width="1.5" stroke-linecap="round" stroke-linejoin="round">
      <path d="M21 12.79A9 9 0 1 1 11.21 3 7 7 0 0 0 21 12.79z"/>
    </g>
  </symbol>
  <symbol id="icon-offset-combined" viewBox="0 0 24 24">
    <g fill="none" stroke="currentColor" stroke-width="2" stroke-linecap="round" stroke-linejoin="round">
      <path d="M7 12H3m4-4L3 12l4 4"/><path d="M17 12h4m-4-4l4 4-4 4"/><line x1="12" y1="4" x2="12" y2="20" stroke-dasharray="2 2"/>
    </g>
  </symbol>
  <symbol id="icon-offset-pass" viewBox="0 0 24 24">
    <g fill="none" stroke="currentColor" stroke-width="2" stroke-linecap="round" stroke-linejoin="round">
      <path d="M5 12h14"/><path d="M15 8l4 4-4 4"/>
    </g>
  </symbol>
  <symbol id="icon-op-clearing" viewBox="0 0 24 24">
    <g fill="none" stroke="currentColor" stroke-width="2" stroke-linecap="round" stroke-linejoin="round">
      <path d="M 19 10 A 7 7 0 1 1 5 10"/>
    <polyline points="19 5 19 10 14 10"/>
    </g>
  </symbol>
  <symbol id="icon-op-cutout" viewBox="0 0 24 24">
    <g fill="none" stroke="currentColor" stroke-width="2" stroke-linecap="round" stroke-linejoin="round">
      <circle cx="7" cy="7" r="4"/>
    <circle cx="7" cy="17" r="4"/>
    <line x1="11" y1="9" x2="22" y2="3"/>
    <line x1="11" y1="15" x2="22" y2="21"/>
    </g>
  </symbol>
  <symbol id="icon-op-drilling" viewBox="0 0 24 24">
    <g fill="none" stroke="currentColor" stroke-width="2" stroke-linecap="round" stroke-linejoin="round">
      <circle cx="12" cy="12" r="9"/>
    <line x1="12" y1="3" x2="12" y2="21"/>
    <line x1="3" y1="12" x2="21" y2="12"/>
    </g>
  </symbol>
  <symbol id="icon-op-engrave" viewBox="0 0 24 24">
    <g fill="none" stroke="currentColor" stroke-width="2" stroke-linecap="round" stroke-linejoin="round">
      <path d="M12 21L4 4h16L12 21z"/>
    </g>
  </symbol>
  <symbol id="icon-op-isolation" viewBox="0 0 24 24">
    <g fill="none" stroke="currentColor" stroke-width="2" stroke-linecap="round" stroke-linejoin="round">
      <circle cx="12" cy="12" r="9"/>
    <circle cx="12" cy="12" r="5"/>
    <circle cx="12" cy="12" r="1"/>
    </g>
  </symbol>
  <symbol id="icon-op-pocket" viewBox="0 0 24 24">
    <g fill="none" stroke="currentColor" stroke-width="2" stroke-linecap="round" stroke-linejoin="round">
      <rect x="3" y="3" width="18" height="18" rx="2"/>
    <rect x="8" y="8" width="8" height="8" rx="1" stroke-dasharray="2 2"/>
    </g>
  </symbol>
  <symbol id="icon-op-profile" viewBox="0 0 24 24">
    <g fill="none" stroke="currentColor" stroke-width="2" stroke-linecap="round" stroke-linejoin="round">
      <rect x="3" y="3" width="18" height="18" rx="2"/>
    </g>
  </symbol>
  <symbol id="icon-op-stencil" viewBox="0 0 24 24">
    <g fill="none" stroke="currentColor" stroke-width="2" stroke-linecap="round" stroke-linejoin="round">
      <rect x="3" y="4" width="18" height="16" rx="2"/>
    <rect x="6" y="7" width="3" height="3" rx="1"/>
    <rect x="10.5" y="7" width="3" height="3" rx="1"/>
    <rect x="15" y="7" width="3" height="3" rx="1"/>
    <circle cx="7.5" cy="15" r="1.5"/>
    <circle cx="12" cy="15" r="1.5"/>
    <circle cx="16.5" cy="15" r="1.5"/>
    <circle cx="3" cy="12" r="1" fill="currentColor" stroke="none"/>
    <circle cx="21" cy="12" r="1" fill="currentColor" stroke="none"/>
    </g>
  </symbol>
  <symbol id="icon-op-vcarve" viewBox="0 0 24 24">
    <g fill="none" stroke="currentColor" stroke-width="2" stroke-linecap="round" stroke-linejoin="round">
      <path d="M4 4l8 16 8-16"/>
    </g>
  </symbol>
  <symbol id="icon-redo" viewBox="0 0 24 24">
    <g fill="none" stroke="currentColor" stroke-width="2" stroke-linecap="round" stroke-linejoin="round">
      <path d="M21 7v6h-6"/><path d="M3 17a9 9 0 0 1 15-6.7L21 13"/>
    </g>
  </symbol>
  <symbol id="icon-sponsor" viewBox="0 0 24 24">
    <g fill="none" stroke="currentColor" stroke-width="1.5" stroke-linecap="round" stroke-linejoin="round">
      <path d="M12 5v14M5 12h14"/>
    </g>
  </symbol>
  <symbol id="icon-stage-offsets" viewBox="0 0 24 24">
    <g fill="none" stroke="currentColor" stroke-width="2" stroke-linecap="round" stroke-linejoin="round">
      <path d="M3 8c3-3 6 3 9 0s6 3 9 0"/><path d="M3 16c3-3 6 3 9 0s6 3 9 0"/>
    </g>
  </symbol>
  <symbol id="icon-stage-preview" viewBox="0 0 24 24">
    <g fill="none" stroke="currentColor" stroke-width="2" stroke-linecap="round" stroke-linejoin="round">
      <rect x="2" y="3" width="20" height="14" rx="2" ry="2"/><line x1="8" y1="21" x2="16" y2="21"/><line x1="12" y1="17" x2="12" y2="21"/>
    </g>
  </symbol>
  <symbol id="icon-sun" viewBox="0 0 24 24">
    <g fill="none" stroke="currentColor" stroke-width="1.5" stroke-linecap="round" stroke-linejoin="round">
      <circle cx="12" cy="12" r="5"/>
  <line x1="12" y1="1" x2="12" y2="3"/><line x1="12" y1="21" x2="12" y2="23"/>
  <line x1="4.22" y1="4.22" x2="5.64" y2="5.64"/><line x1="18.36" y1="18.36" x2="19.78" y2="19.78"/>
  <line x1="1" y1="12" x2="3" y2="12"/><line x1="21" y1="12" x2="23" y2="12"/>
  <line x1="4.22" y1="19.78" x2="5.64" y2="18.36"/><line x1="18.36" y1="5.64" x2="19.78" y2="4.22"/>
    </g>
  </symbol>
  <symbol id="icon-toolpath" viewBox="0 0 24 24">
    <g fill="none" stroke="currentColor" stroke-width="2" stroke-linecap="round" stroke-linejoin="round">
      <path d="M14.7 6.3a1 1 0 0 0 0 1.4l1.6 1.6a1 1 0 0 0 1.4 0l3.77-3.77a6 6 0 0 1-7.94 7.94l-6.91 6.91a2.12 2.12 0 0 1-3-3l6.91-6.91a6 6 0 0 1 7.94-7.94l-3.76 3.76z"/>
    </g>
  </symbol>
  <symbol id="icon-undo" viewBox="0 0 24 24">
    <g fill="none" stroke="currentColor" stroke-width="2" stroke-linecap="round" stroke-linejoin="round">
      <path d="M3 7v6h6"/><path d="M21 17a9 9 0 0 0-15-6.7L3 13"/>
    </g>
  </symbol>
  <symbol id="icon-ungroup" viewBox="0 0 24 24">
    <g fill="none" stroke="currentColor" stroke-width="2" stroke-linecap="round" stroke-linejoin="round">
      <path d="M22 19a2 2 0 0 1-2 2H4a2 2 0 0 1-2-2V5a2 2 0 0 1 2-2h5l2 3h9a2 2 0 0 1 2 2z"/>
  <line x1="9" y1="14" x2="15" y2="14"/>
    </g>
  </symbol>
  <symbol id="icon-warning" viewBox="0 0 24 24">
    <g fill="none" stroke="currentColor" stroke-width="2" stroke-linecap="round" stroke-linejoin="round">
      <path d="M10.29 3.86L1.82 18a2 2 0 0 0 1.71 3h16.94a2 2 0 0 0 1.71-3L13.71 3.86a2 2 0 0 0-3.42 0z"/>
  <line x1="12" y1="9" x2="12" y2="13"/><line x1="12" y1="17" x2="12.01" y2="17"/>
    </g>
  </symbol>
  <symbol id="icon-wrench" viewBox="0 0 24 24">
    <g fill="none" stroke="currentColor" stroke-width="2" stroke-linecap="round" stroke-linejoin="round">
      <path d="M14.7 6.3a1 1 0 0 0 0 1.4l1.6 1.6a1 1 0 0 0 1.4 0l3.77-3.77a6 6 0 0 1-7.94 7.94l-6.91 6.91a2.12 2.12 0 0 1-3-3l6.91-6.91a6 6 0 0 1 7.94-7.94l-3.76 3.76z"/>
    </g>
  </symbol>
  <symbol id="icon-zoom-fit" viewBox="0 0 20 20">
    <g fill="none" stroke="currentColor" stroke-width="1.5" stroke-linecap="round" stroke-linejoin="round">
      <rect x="3" y="3" width="14" height="14"/><circle cx="10" cy="10" r="3"/>
    </g>
  </symbol>
  <symbol id="icon-zoom-in" viewBox="0 0 20 20">
    <g fill="none" stroke="currentColor" stroke-width="1.5" stroke-linecap="round" stroke-linejoin="round">
      <circle cx="8" cy="8" r="6"/><path d="M12.5 12.5l5 5M5 8h6M8 5v6"/>
    </g>
  </symbol>
  <symbol id="icon-zoom-out" viewBox="0 0 20 20">
    <g fill="none" stroke="currentColor" stroke-width="1.5" stroke-linecap="round" stroke-linejoin="round">
      <circle cx="8" cy="8" r="6"/><path d="M12.5 12.5l5 5M5 8h6"/>
    </g>
  </symbol>
</svg>