<?xml version="1.0" encoding="UTF-8" standalone="no"?>
<!--
Creative Commons License: CC BY-NC 4.0
https://creativecommons.org/licenses/by-nc/4.0/
Author: Eltryus - Ricardo Marques
Temporary example file in EasyShape5000.
-->
<svg viewBox="-361.707895 -371.414346 717.602374 733.296297" xmlns="http://www.w3.org/2000/svg" fill="none" stroke="#191919" stroke-width="0.35" stroke-linecap="square" stroke-miterlimit="4">
  <g transform="scale(1,-1)">
    <path d="m -361.70789,-51.180099 30,5e-6 c 1e-5,-92.166666 3e-5,-184.333326 4e-5,-276.499996 5e-5,-1.9329 1.56695,-3.49983 3.49993,-3.49996 h 276.500067 l 3e-6,-13.15789 c -1.641262,-4e-5 -2.462865,-1.98427 -1.30243,-3.14465 1.160436,-1.16037 3.144626,-0.33867 3.144558,1.30257 l 13.157872,-2e-5 2e-6,-15 -321.499992,-6e-5 c -1.9331,-9e-5 -3.50021,1.567 -3.50008,3.50005 z" fill-rule="evenodd"/>
    <circle cx="-59.207851" cy="-346.18005" r="1.8421053"/>
    <path d="m 30.894432,370.71244 3e-6,-15 13.157879,-2.2e-4 c -4.12e-4,1.64114 1.983807,2.46322 3.144431,1.3029 1.160625,-1.16033 0.33905,-3.14476 -1.30231,-3.14478 l 2e-6,-13.1579 276.499783,-2e-4 c 1.93275,0 3.49994,-1.56678 3.50021,-3.49975 l 5e-5,-276.500001 30,5e-6 -2.7e-4,306.499756 c 6e-5,1.93277 -1.56676,3.50001 -3.49978,3.50024 z" fill-rule="evenodd"/>
    <circle cx="53.394436" cy="355.71243" r="1.8421053"/>
    <path d="m -346.00599,46.414301 v 13.157897 c -1.64127,4e-6 -2.46292,1.984215 -1.30251,3.144618 1.16041,1.160402 3.14462,0.338746 3.14461,-1.302514 l 13.1579,2e-6 -3e-5,276.499846 c -1.5e-4,1.93295 1.56688,3.50013 3.49998,3.50015 l 276.499999,5e-5 -5e-6,30 -306.499974,-2e-4 c -1.93288,-1.3e-4 -3.49986,-1.56696 -3.50003,-3.49986 l 6e-5,-321.499991 z" fill-rule="evenodd"/>
    <circle cx="-346.00598" cy="68.914299" r="1.8421053"/>
    <path d="m 309.71095,-217.57485 c 2.72162,-4.61639 4.15703,-9.87736 4.15705,-15.23615 0,-5.3589 -1.43544,-10.61998 -4.1571,-15.2363 l -8.63043,8.63043 c 1.16026,1.16068 0.33805,3.14444 -1.3029,3.14436 -1.64095,-9e-5 -2.46295,-1.98394 -1.3024,-3.14442 l -8.0013,-8.00141 c -1.16051,1.16081 -3.14484,0.33873 -3.14476,-1.30249 9e-5,-1.64122 1.9845,-2.4631 3.14482,-1.3024 l 8.63022,-8.63072 c -4.61639,-2.72162 -9.87736,-4.15703 -15.23615,-4.15705 -5.3589,0 -10.61998,1.43544 -15.2363,4.1571 l 8.63043,8.63043 c 1.16068,-1.16026 3.14444,-0.33805 3.14436,1.3029 -9e-5,1.64095 -1.98394,2.46295 -3.14442,1.3024 l -8.00141,8.0013 c 1.16081,1.16051 0.33873,3.14484 -1.30249,3.14476 -1.64122,-9e-5 -2.4631,-1.9845 -1.3024,-3.14482 l -8.63072,-8.63022 c -2.72162,4.61639 -4.15703,9.87736 -4.15705,15.23615 0,5.3589 1.43544,10.61998 4.1571,15.2363 l 8.63043,-8.63043 c -1.16026,-1.16068 -0.33805,-3.14444 1.3029,-3.14436 1.64095,9e-5 2.46295,1.98394 1.3024,3.14442 l 8.0013,8.00141 c 1.16051,-1.16081 3.14484,-0.33873 3.14476,1.30249 -9e-5,1.64122 -1.9845,2.4631 -3.14482,1.3024 l -8.63022,8.63072 c 4.61639,2.72162 9.87736,4.15703 15.23615,4.15705 5.3589,0 10.61998,-1.43544 15.2363,-4.1571 l -8.63043,-8.63043 c -1.16068,1.16026 -3.14444,0.33805 -3.14436,-1.3029 9e-5,-1.64095 1.98394,-2.46295 3.14442,-1.3024 l 8.00141,-8.0013 c -1.16081,-1.16051 -0.33873,-3.14484 1.30249,-3.14476 1.64122,9e-5 2.4631,1.9845 1.3024,3.14482 z" fill-rule="evenodd"/>
    <path d="m 204.87185,-262.75405 c 4.61639,2.72162 9.87736,4.15703 15.23615,4.15705 5.3589,0 10.61998,-1.43544 15.2363,-4.1571 l -8.63043,-8.63043 c -1.16068,1.16026 -3.14444,0.33805 -3.14436,-1.3029 9e-5,-1.64095 1.98394,-2.46295 3.14442,-1.3024 l 8.00141,-8.0013 c -1.16081,-1.16051 -0.33873,-3.14484 1.30249,-3.14476 1.64122,9e-5 2.4631,1.9845 1.3024,3.14482 l 8.63072,8.63022 c 2.72162,-4.61639 4.15703,-9.87736 4.15705,-15.23615 0,-5.3589 -1.43544,-10.61998 -4.1571,-15.2363 l -8.63043,8.63043 c 1.16026,1.16068 0.33805,3.14444 -1.3029,3.14436 -1.64095,-9e-5 -2.46295,-1.98394 -1.3024,-3.14442 l -8.0013,-8.00141 c -1.16051,1.16081 -3.14484,0.33873 -3.14476,-1.30249 9e-5,-1.64122 1.9845,-2.4631 3.14482,-1.3024 l 8.63022,-8.63072 c -4.61639,-2.72162 -9.87736,-4.15703 -15.23615,-4.15705 -5.3589,0 -10.61998,1.43544 -15.2363,4.1571 l 8.63043,8.63043 c 1.16068,-1.16026 3.14444,-0.33805 3.14436,1.3029 -9e-5,1.64095 -1.98394,2.46295 -3.14442,1.3024 l -8.00141,8.0013 c 1.16081,1.16051 0.33873,3.14484 -1.30249,3.14476 -1.64122,-9e-5 -2.4631,-1.9845 -1.3024,-3.14482 l -8.63072,-8.63022 c -2.72162,4.61639 -4.15703,9.87736 -4.15705,15.23615 0,5.3589 1.43544,10.61998 4.1571,15.2363 l 8.63043,-8.63043 c -1.16026,-1.16068 -0.33805,-3.14444 1.3029,-3.14436 1.64095,9e-5 2.46295,1.98394 1.3024,3.14442 l 8.0013,8.00141 c 1.16051,-1.16081 3.14484,-0.33873 3.14476,1.30249 -9e-5,1.64122 -1.9845,2.4631 -3.14482,1.3024 z" fill-rule="evenodd"/>
    <path d="m -223.8112,-234.41776 8.66999,8.66999 c 1.1604,-1.16087 3.14475,-0.339 3.14486,1.30219 1e-4,1.64118 -1.98415,2.4633 -3.14477,1.30276 l -8.00156,8.00165 c 1.16047,1.16052 0.33851,3.14445 -1.30248,3.14456 -1.64098,1e-4 -2.4632,-1.98372 -1.30276,-3.14447 l -8.67,-8.67 c -0.34802,-0.34777 -0.91422,-0.34053 -1.25311,0.0161 C -293.02364,-163.39884 -325.00001,-83.288781 -325,0 c 0,83.288773 31.97638,163.39882 89.32901,223.79498 0.33886,0.35687 0.90526,0.36417 1.25323,0.0162 l 8.66999,-8.66999 c -1.16087,-1.1604 -0.339,-3.14475 1.30219,-3.14486 1.64118,-1e-4 2.4633,1.98415 1.30276,3.14477 l 8.00165,8.00156 c 1.16052,-1.16047 3.14445,-0.33851 3.14456,1.30248 1e-4,1.64098 -1.98372,2.4632 -3.14447,1.30276 l -8.67,8.67 c -0.34777,0.34802 -0.34053,0.91422 0.0161,1.25311 C -163.39884,293.02364 -83.288781,325.00001 0,325 c 83.288773,0 163.39882,-31.97638 223.79496,-89.32901 0.35689,-0.33886 0.36419,-0.90526 0.0162,-1.25323 l -8.66999,-8.66999 c -1.1604,1.16087 -3.14475,0.339 -3.14486,-1.30219 -1e-4,-1.64118 1.98415,-2.4633 3.14477,-1.30276 l 8.00156,-8.00165 c -1.16047,-1.16052 -0.33851,-3.14445 1.30248,-3.14456 1.64098,-1e-4 2.4632,1.98372 1.30276,3.14447 l 8.67,8.67 c 0.34802,0.34777 0.91422,0.34053 1.25311,-0.0161 C 293.02364,163.39884 325.00001,83.288781 325,0 c 0,-83.288773 -31.97638,-163.39882 -89.32901,-223.79496 -0.33886,-0.35689 -0.90526,-0.36419 -1.25323,-0.0162 l -8.66999,8.66999 c 1.16087,1.1604 0.339,3.14475 -1.30219,3.14486 -1.64118,1e-4 -2.4633,-1.98415 -1.30276,-3.14477 l -8.00165,-8.00156 c -1.16052,1.16047 -3.14445,0.33851 -3.14456,-1.30248 -1e-4,-1.64098 1.98372,-2.4632 3.14447,-1.30276 l 8.67,-8.67 c 0.34777,-0.34802 0.34053,-0.91422 -0.0161,-1.25311 C 163.39884,-293.02364 83.288781,-325.00001 0,-325 c -83.288773,0 -163.39882,31.97638 -223.79498,89.32901 -0.35687,0.33886 -0.36417,0.90526 -0.0162,1.25323 z" fill-rule="evenodd"/>
  </g>
  <g transform="matrix(0,-1,-1,0,-5.986989,0.17380603)">
    <path d="m -51.70785,-344.33794 c -1.641261,-4e-5 -2.462865,-1.98427 -1.30243,-3.14464 1.160434,-1.16038 3.144625,-0.33868 3.144557,1.30255 l 13.157873,-1e-5 2e-6,-15 -321.499992,-6e-5 c -1.9331,-9e-5 -3.50022,1.567 -3.50008,3.50005 l 3e-5,306.499951 30,5e-6 4e-5,-276.499996 c 5e-5,-1.9329 1.56695,-3.49983 3.49993,-3.49995 l 276.500067,-10e-6 z" fill-rule="evenodd"/>
    <circle cx="-59.207851" cy="-346.18005" r="1.8421053"/>
  </g>
</svg>
