M48
METRIC,LZ,000.000
;FILE_FORMAT=3:3
;TYPE=PLATED
;Layer: PTH_Through
;EasyEDA v6.5.51, 2025-10-09 17:29:58
;3aecb5c1c59e44a699bdcf9830d4853d,e3b7720e4ff4443c8ba5aae6fccacac6,10
;Gerber Generator version 0.2
;Holesize 1 = 0.800 mm
T01C0.800
;Holesize 2 = 1.000 mm
T02C1.000
;Holesize 3 = 1.021 mm
T03C1.021
;Holesize 4 = 1.101 mm
T04C1.101
;Holesize 5 = 1.901 mm
T05C1.901
%
G05
G90
T01
X015257Y-006858G85X015297Y-006858
X020257Y-006858G85X020297Y-006858
X029548Y-005207
X040048Y-005207
X040048Y-021158
X029548Y-021158
X040048Y-029134
X029548Y-029134
X029548Y-037109
X040048Y-037109
X029548Y-045085
X040048Y-045085
X029294Y-013081
X039794Y-013081
T02
X046487Y-006270
X046487Y-003730
X046487Y-016270
X046487Y-013730
X046487Y-026270
X046487Y-023730
X046487Y-036270
X046487Y-033730
X046487Y-046270
X046487Y-043730
X017284Y-025360
X017284Y-022820
X017284Y-020280
T03
X006000Y-030080
X006000Y-027540
X006000Y-025000
X006000Y-022460
X006000Y-019920
X055000Y-030080
X055000Y-027540
X055000Y-025000
X055000Y-022460
X055000Y-019920
T04
X011994Y-043013
X011994Y-040513
X011994Y-038013
T05
X018844Y-045413G85X019144Y-045413
X018844Y-035613G85X019144Y-035613
M30
