G04 Layer: BottomLayer*
G04 EasyEDA v6.5.51, 2025-10-09 17:29:58*
G04 3aecb5c1c59e44a699bdcf9830d4853d,e3b7720e4ff4443c8ba5aae6fccacac6,10*
G04 Gerber Generator version 0.2*
G04 Scale: 100 percent, Rotated: No, Reflected: No *
G04 Dimensions in millimeters *
G04 leading zeros omitted , absolute positions ,4 integer and 5 decimal *
%FSLAX45Y45*%
%MOMM*%

%ADD10C,1.0000*%
%ADD11C,2.0000*%
%ADD12R,1.5748X1.5748*%
%ADD13R,2.0000X2.0000*%
%ADD14R,2.0000X1.6000*%
%ADD15C,2.5000*%
%ADD16O,2.499995X1.599997*%
%ADD17O,0.0159X1.599997*%
%ADD18O,2.999994X2.899994*%
%ADD19C,1.8000*%
%ADD20O,2.499995X1.799996*%
%ADD21R,1.8000X1.8000*%

%LPD*%
D10*
X2215641Y-520700D02*
G01*
X2215641Y-1048257D01*
X763778Y-2500121D01*
X649478Y-2500121D01*
X1206500Y-952500D02*
G01*
X1206500Y-622300D01*
X1549400Y-279400D01*
X3035300Y-279400D01*
X3187700Y-431800D01*
X3187700Y-647700D01*
X3058668Y-776731D01*
X2804668Y-776731D01*
X1728470Y-1852929D01*
X1728470Y-2027936D01*
X2954781Y-4508500D02*
G01*
X3505961Y-3957320D01*
X4767579Y-3957320D01*
X5500115Y-3224784D01*
X5500115Y-3008121D01*
X4978400Y-1245107D02*
G01*
X5156708Y-1245107D01*
X5727700Y-1816100D01*
X5727700Y-3454145D01*
X4808981Y-4373118D01*
X4648708Y-4373118D01*
X1770379Y-4145534D02*
G01*
X1816100Y-4191000D01*
X2324100Y-4191000D01*
X2435606Y-4302505D01*
X2590800Y-4302505D01*
X2590800Y-4302505D02*
G01*
X2758693Y-4302505D01*
X3688079Y-3372865D01*
X4648708Y-3372865D01*
X4648708Y-4373118D02*
G01*
X4542790Y-4267200D01*
X3695700Y-4267200D01*
X3187700Y-4775200D01*
X2832100Y-4775200D01*
X2590800Y-4533900D01*
X2590800Y-4302505D01*
X1381150Y-3756126D02*
G01*
X1770379Y-4145534D01*
X1770379Y-4145534D02*
G01*
X1280413Y-4635500D01*
X1092200Y-4635500D01*
X190500Y-3733800D01*
X190500Y-2273300D01*
X471678Y-1992121D01*
X599947Y-1992121D01*
X599947Y-2246121D02*
G01*
X547878Y-2246121D01*
X368300Y-2425700D01*
X368300Y-3530600D01*
X1138936Y-4301236D01*
X1199387Y-4301236D01*
X1206500Y-952500D02*
G01*
X1206500Y-1723136D01*
X692404Y-2245360D01*
X599947Y-2246121D01*
X1199387Y-4051300D02*
G01*
X599947Y-3451860D01*
X599947Y-3008121D01*
X649597Y-2499995D02*
G01*
X599998Y-2499995D01*
X1728368Y-2282037D02*
G01*
X1483893Y-2282037D01*
X1011936Y-2753995D01*
X599998Y-2753995D01*
X2027681Y-685800D02*
G01*
X1760981Y-952500D01*
X1346200Y-952500D01*
X1206497Y-952497D01*
X2954781Y-2115820D02*
G01*
X2654300Y-1815337D01*
X2654300Y-1295400D01*
X2882900Y-1066800D01*
X3191509Y-1066800D01*
X3751834Y-1626870D01*
X4648708Y-1626870D01*
X4978400Y-1245107D02*
G01*
X4978400Y-546100D01*
X4805172Y-373126D01*
X4648708Y-373126D01*
X4648708Y-1372870D02*
G01*
X4774691Y-1245107D01*
X4978400Y-1245107D01*
X1527708Y-685800D02*
G01*
X1709851Y-503656D01*
X2198471Y-503656D01*
X2215515Y-520700D01*
X2954781Y-3710939D02*
G01*
X3491484Y-3174237D01*
X4928361Y-3174237D01*
X5348477Y-2754121D01*
X5500115Y-2754121D01*
X4004818Y-2115820D02*
G01*
X5113020Y-2115820D01*
X5243322Y-2246121D01*
X5500115Y-2246121D01*
X3979418Y-1308100D02*
G01*
X3979418Y-1049781D01*
X4402074Y-627126D01*
X4648708Y-627126D01*
X2954807Y-520700D02*
G01*
X2215515Y-520700D01*
X1728368Y-2536037D02*
G01*
X2478227Y-2536037D01*
X2641269Y-2372995D01*
X4648682Y-2372995D01*
X4648682Y-372998D02*
G01*
X4152493Y-372998D01*
X4004792Y-520700D01*
X1728368Y-2536037D02*
G01*
X1728368Y-3408908D01*
X1381150Y-3756126D01*
X1381150Y-3756126D02*
G01*
X1335989Y-3801287D01*
X1199387Y-3801287D01*
X4004792Y-2913379D02*
G01*
X4845532Y-2913379D01*
X5258917Y-2499995D01*
X5499988Y-2499995D01*
X2929407Y-1308100D02*
G01*
X3413226Y-1791919D01*
X5099837Y-1791919D01*
X5299913Y-1991995D01*
X5499988Y-1991995D02*
G01*
X5299913Y-1991995D01*
X2954807Y-2913379D02*
G01*
X3241192Y-2626995D01*
X4648682Y-2626995D01*
X4004792Y-3710939D02*
G01*
X4364659Y-3710939D01*
X4448606Y-3626993D01*
X4648682Y-3626993D02*
G01*
X4448606Y-3626993D01*
X4004792Y-4508500D02*
G01*
X4123283Y-4626990D01*
X4648682Y-4626990D01*
D11*
G01*
X599998Y-3007995D03*
G01*
X599998Y-2753995D03*
G01*
X599998Y-2499995D03*
G01*
X599998Y-2245995D03*
D12*
G01*
X599998Y-1991995D03*
D11*
G01*
X5499988Y-3007995D03*
G01*
X5499988Y-2753995D03*
G01*
X5499988Y-2499995D03*
G01*
X5499988Y-2245995D03*
D13*
G01*
X5499988Y-1991995D03*
D14*
G01*
X4648682Y-626998D03*
D11*
G01*
X4648682Y-372998D03*
D14*
G01*
X4648708Y-1626996D03*
D15*
G01*
X4648708Y-1372996D03*
D14*
G01*
X4648682Y-2626995D03*
D11*
G01*
X4648682Y-2372995D03*
D14*
G01*
X4648682Y-3626993D03*
D16*
G01*
X4648682Y-3372993D03*
D14*
G01*
X4648682Y-4626990D03*
D11*
G01*
X4648682Y-4372990D03*
D18*
G01*
X1899391Y-4541283D03*
G01*
X1899391Y-3561300D03*
D19*
G01*
X1199393Y-4301279D03*
G01*
X1199393Y-4051292D03*
G01*
X1199393Y-3801280D03*
D11*
G01*
X1527705Y-685802D03*
G01*
X2027704Y-685802D03*
D20*
G01*
X1728376Y-2536037D03*
G01*
X1728376Y-2282037D03*
D21*
G01*
X1728376Y-2028037D03*
D11*
G01*
X2954807Y-520700D03*
G01*
X4004792Y-520700D03*
G01*
X4004792Y-2115820D03*
G01*
X2954807Y-2115820D03*
G01*
X4004792Y-2913379D03*
G01*
X2954807Y-2913379D03*
G01*
X2954807Y-3710939D03*
G01*
X4004792Y-3710939D03*
G01*
X2954807Y-4508500D03*
G01*
X4004792Y-4508500D03*
G01*
X2929399Y-1308097D03*
G01*
X3979384Y-1308097D03*
M02*
