<?xml version="1.0" encoding="UTF-8" standalone="no"?>
<svg xmlns="http://www.w3.org/2000/svg" xmlns:cc="http://creativecommons.org/ns#" xmlns:dc="http://purl.org/dc/elements/1.1/" xmlns:rdf="http://www.w3.org/1999/02/22-rdf-syntax-ns#" width="44.4mm" height="13.3mm" viewBox="0 0 44.4 13.3" version="1.1">
  
  <metadata>
    <rdf:RDF>
      <cc:Work rdf:about="">
        <dc:format>image/svg+xml</dc:format>
        <dc:type rdf:resource="http://purl.org/dc/dcmitype/StillImage"/>
        <dc:title>LineTest Calibration Pattern</dc:title>
        <dc:creator>
          <cc:Agent>
            <dc:title>Eltryus - Ricardo Marques</dc:title>
          </cc:Agent>
        </dc:creator>
        <cc:license rdf:resource="http://creativecommons.org/licenses/by-nc/4.0/"/>
      </cc:Work>
      <cc:License rdf:about="http://creativecommons.org/licenses/by-nc/4.0/">
        <cc:permits rdf:resource="http://creativecommons.org/ns#Reproduction"/>
        <cc:permits rdf:resource="http://creativecommons.org/ns#Distribution"/>
        <cc:requires rdf:resource="http://creativecommons.org/ns#Notice"/>
        <cc:requires rdf:resource="http://creativecommons.org/ns#Attribution"/>
        <cc:prohibits rdf:resource="http://creativecommons.org/ns#CommercialUse"/>
      </cc:License>
    </rdf:RDF>
  </metadata>

  <g id="Calibration_Layer" transform="matrix(1,0,0,-1,0,3)">
    
    <g id="Sketch" fill="#000000" fill-rule="evenodd">
      <path d="M 0.3,3 H 0 V -0.3 H 0.3 V -10 h 0.01 v 9.7 h 0.3 V 3 H 0.31 V 0 H 0.3 v 3" />
      <path d="m 1.36,-0.3 h 0.3 v -3 h 0.02 v 3 h 0.3 V 3 H 1.68 V 0 H 1.66 v 3 h -0.3 v -3.3" />
      <path d="m 2.73,-0.3 h 0.3 v -3 h 0.03 v 3 h 0.3 V 3 H 3.06 V 0 H 3.03 v 3 h -0.3 v -3.3" />
      <path d="m 4.11,-0.3 h 0.3 v -3 h 0.04 v 3 h 0.3 V 3 H 4.45 V 0 H 4.41 v 3 h -0.3 v -3.3" />
      <path d="m 5.85,-0.3 v -3 H 5.8 v 3 H 5.5 V 3 H 5.8 V 0 h 0.05 v 3 h 0.3 v -3.3 h -0.3" />
      <path d="m 6.9,-0.3 h 0.3 v -3 h 0.06 v 3 h 0.3 V 3 H 7.26 V 0 H 7.2 V 3 H 6.9 v -3.3" />
      <path d="m 8.31,-0.3 h 0.3 v -3 h 0.07 v 3 h 0.3 V 3 H 8.68 V 0 H 8.61 v 3 h -0.3 v -3.3" />
      <path d="M 9.73,-0.3 V 3 h 0.3 V 0 h 0.08 v 3 h 0.3 v -3.3 h -0.3 v -3 h -0.08 v 3 h -0.3" />
      <path d="m 11.16,-0.3 h 0.3 v -3 h 0.09 v 3 h 0.3 V 3 h -0.3 V 0 h -0.09 v 3 h -0.3 v -3.3" />
      <path d="M 12.6,-0.3 V 3 h 0.3 V 0 H 13 v 3 h 0.3 V -0.3 H 13 v -10 h -0.1 v 10 h -0.3" />
      <path d="M 14.05,-0.3 V 3 h 0.3 V 0 h 0.11 v 3 h 0.3 v -3.3 h -0.3 v -3 h -0.11 v 3 h -0.3" />
      <path d="M 15.51,-0.3 V 3 h 0.3 V 0 h 0.12 v 3 h 0.3 v -3.3 h -0.3 v -3 h -0.12 v 3 h -0.3" />
      <path d="M 16.98,-0.3 V 3 h 0.3 V 0 h 0.13 v 3 h 0.3 v -3.3 h -0.3 v -3 h -0.13 v 3 h -0.3" />
      <path d="m 18.46,-0.3 h 0.3 v -3 h 0.14 v 3 h 0.3 V 3 H 18.9 V 0 h -0.14 v 3 h -0.3 v -3.3" />
      <path d="m 19.95,-0.3 h 0.3 v -3 h 0.15 v 3 h 0.3 V 3 H 20.4 V 0 h -0.15 v 3 h -0.3 v -3.3" />
      <path d="m 21.45,-0.3 h 0.3 v -3 h 0.16 v 3 h 0.3 V 3 h -0.3 V 0 h -0.16 v 3 h -0.3 v -3.3" />
      <path d="m 23.43,-0.3 v -3 h -0.17 v 3 h -0.3 V 3 h 0.3 V 0 h 0.17 v 3 h 0.3 v -3.3 h -0.3" />
      <path d="m 24.48,-0.3 h 0.3 v -3 h 0.18 v 3 h 0.3 V 3 h -0.3 V 0 h -0.18 v 3 h -0.3 v -3.3" />
      <path d="m 26.5,-0.3 v -3 h -0.19 v 3 h -0.3 V 3 h 0.3 V 0 h 0.19 v 3 h 0.3 v -3.3 h -0.3" />
      <path d="m 28.05,-0.3 v -10 h -0.2 v 10 h -0.3 V 3 h 0.3 V 0 h 0.2 v 3 h 0.3 v -3.3 h -0.3" />
      <path d="M 29.1,-0.3 V 3 h 0.3 V 0 h 0.21 v 3 h 0.3 v -3.3 h -0.3 v -3 H 29.4 v 3 h -0.3" />
      <path d="M 30.66,-0.3 V 3 h 0.3 V 0 h 0.22 v 3 h 0.3 v -3.3 h -0.3 v -3 h -0.22 v 3 h -0.3" />
      <path d="M 32.23,-0.3 V 3 h 0.3 V 0 h 0.23 v 3 h 0.3 v -3.3 h -0.3 v -3 h -0.23 v 3 h -0.3" />
      <path d="M 33.81,-0.3 V 3 h 0.3 V 0 h 0.24 v 3 h 0.3 v -3.3 h -0.3 v -3 h -0.24 v 3 h -0.3" />
      <path d="M 35.4,-0.3 V 3 h 0.3 V 0 h 0.25 v 3 h 0.3 v -3.3 h -0.3 v -3 H 35.7 v 3 h -0.3" />
      <path d="M 37,-0.3 V 3 h 0.3 V 0 h 0.26 v 3 h 0.3 v -3.3 h -0.3 v -3 H 37.3 v 3 H 37" />
      <path d="m 39.18,-0.3 v -3 h -0.27 v 3 h -0.3 V 3 h 0.3 V 0 h 0.27 v 3 h 0.3 v -3.3 h -0.3" />
      <path d="m 40.81,-0.3 v -3 h -0.28 v 3 h -0.3 V 3 h 0.3 V 0 h 0.28 v 3 h 0.3 v -3.3 h -0.3" />
      <path d="m 42.45,-0.3 v -3 h -0.29 v 3 h -0.3 V 3 h 0.3 V 0 h 0.29 v 3 h 0.3 v -3.3 h -0.3" />
      <path d="m 44.1,-0.3 v -10 h -0.3 v 10 H 43.5 V 3 h 0.3 V 0 h 0.3 v 3 h 0.3 v -3.3 h -0.3" />
    </g>

    <g id="ShapeString" fill="#000000" fill-rule="evenodd">
      <path d="m 1.0025995,-8.5468447 q 0.096002,0 0.161886,-0.055593 0.065884,-0.055468 0.065884,-0.1872356 0,-0.1298853 -0.065884,-0.1892435 -0.065884,-0.059233 -0.161886,-0.059233 -0.0922374,0 -0.1562388,0.059233 -0.0640014,0.059358 -0.0640014,0.1892435 0,0.1317676 0.0640014,0.1872356 0.0640014,0.055593 0.1562388,0.055593 z" />
      <path d="m 3.235985,-8.6637034 c -0.072786,-0.1219792 -0.1669058,-0.2147185 -0.2823593,-0.278218 -0.1154536,-0.063499 -0.2541234,-0.095249 -0.4160093,-0.095249 -0.2045536,0 -0.3736764,0.05597 -0.5073683,0.1679097 -0.1336082,0.1119397 -0.2333751,0.2738675 -0.2993008,0.4857834 -0.065842,0.2119159 -0.098763,0.4675451 -0.098763,0.7668878 0,0.2942393 0.029784,0.5473168 0.089351,0.7592327 0.059651,0.2119159 0.1559881,0.374764 0.2890104,0.4885443 0.1330226,0.113864 0.3087128,0.170796 0.5270707,0.170796 0.2070635,0 0.3777339,-0.056305 0.5120114,-0.1689136 0.1342775,-0.1125254 0.2340445,-0.274746 0.2993009,-0.4866619 0.065257,-0.2119159 0.097885,-0.4662484 0.097885,-0.7629975 0,-0.2238795 -0.016942,-0.4238736 -0.050825,-0.5999821 -0.033883,-0.1760249 -0.087218,-0.3250688 -0.1600037,-0.4471318 z m -0.6983686,-0.106167 c 0.1418071,0 0.2562985,0.042124 0.3434743,0.1263714 0.08726,0.084331 0.1506334,0.2120414 0.1901219,0.3831302 0.039572,0.1711725 0.059358,0.3857655 0.059358,0.6437791 0,0.2529103 -0.019451,0.4645751 -0.058354,0.6349946 -0.038903,0.1705032 -0.1016492,0.2988407 -0.1882395,0.3850126 -0.08659,0.086256 -0.2020438,0.1293833 -0.3463607,0.1293833 -0.144317,0 -0.2597706,-0.043128 -0.3463607,-0.1293833 -0.08659,-0.086172 -0.1490439,-0.2145094 -0.1873611,-0.3850126 -0.038233,-0.1704195 -0.05735,-0.3820843 -0.05735,-0.6349946 0,-0.2567587 0.019451,-0.4707242 0.058354,-0.6418967 0.038903,-0.1710888 0.101942,-0.2990917 0.189118,-0.3840086 0.087259,-0.084917 0.2017927,-0.1273754 0.3435998,-0.1273754 z" />
      <path d="m 4.6874371,-7.0425847 c 0,0.074124 2.928e-4,0.137875 8.784e-4,0.1912514 6.667e-4,0.053376 0.00192,0.1023601 0.00376,0.1469523 0.00193,0.044592 0.00477,0.090146 0.00853,0.1366619 -0.038903,-0.040158 -0.075296,-0.074376 -0.109179,-0.1026533 -0.033883,-0.028278 -0.075924,-0.063123 -0.1261204,-0.1045357 l -0.3143516,-0.2523664 -0.1637684,0.2127106 0.7454285,0.5743815 h 0.2597705 v -2.7548225 h -0.304948 z" />
      <path d="m 13.702599,-8.5468447 q 0.096,0 0.161886,-0.055593 0.06588,-0.055468 0.06588,-0.1872356 0,-0.1298853 -0.06588,-0.1892435 -0.06588,-0.059233 -0.161886,-0.059233 -0.09224,0 -0.156238,0.059233 -0.064,0.059358 -0.064,0.1892435 0,0.1317676 0.064,0.1872356 0.064,0.055593 0.156238,0.055593 z" />
      <path d="m 14.812975,-7.0425845 q 0,0.1111868 8.78e-4,0.1912514 10e-4,0.080064 0.0038,0.1469523 0.0029,0.066888 0.0085,0.1366619 -0.05835,-0.060237 -0.109178,-0.1026533 -0.05082,-0.042417 -0.126121,-0.1045357 l -0.31436,-0.2523664 -0.163768,0.2127106 0.745428,0.5743815 h 0.259771 v -2.7548225 h -0.30495 z" />
      <path d="m 28.702599,-8.5468447 q 0.096,0 0.161886,-0.055593 0.06588,-0.055468 0.06588,-0.1872356 0,-0.1298853 -0.06588,-0.1892435 -0.06588,-0.059233 -0.161886,-0.059233 -0.09224,0 -0.156238,0.059233 -0.064,0.059358 -0.064,0.1892435 0,0.1317676 0.064,0.1872356 0.064,0.055593 0.156238,0.055593 z" />
      <path d="m 29.402098,-8.7383471 0.736016,0.7490678 q 0.205181,0.2075654 0.345357,0.3698279 0.140301,0.1622624 0.213714,0.3197562 0.07341,0.1576192 0.07341,0.3463607 0,0.2339189 -0.138419,0.3575296 -0.138293,0.1236106 -0.364181,0.1236106 -0.197651,0 -0.350125,-0.067766 -0.152474,-0.067766 -0.312478,-0.1920043 l -0.167533,0.2108283 q 0.109179,0.092237 0.23806,0.1637684 0.129007,0.071531 0.276712,0.1129437 0.147831,0.041413 0.315364,0.041413 0.254124,0 0.438598,-0.088724 0.184475,-0.088598 0.28512,-0.2527429 0.100771,-0.1641449 0.100771,-0.3905342 0,-0.2187344 -0.08659,-0.4064719 -0.08659,-0.1877375 -0.242829,-0.3717103 -0.156235,-0.1838475 -0.36518,-0.3895305 l -0.598602,-0.5979742 v -0.013177 h 1.406149 V -9 h -1.803334 z" />
      <path d="m 40.502599,-8.5468447 q 0.096,0 0.161886,-0.055593 0.06588,-0.055468 0.06588,-0.1872356 0,-0.1298853 -0.06588,-0.1892435 -0.06588,-0.059233 -0.161886,-0.059233 -0.09224,0 -0.156238,0.059233 -0.064,0.059358 -0.064,0.1892435 0,0.1317676 0.064,0.1872356 0.064,0.055593 0.156238,0.055593 z" />
      <path d="m 42.632718,-7.3906782 q -0.128003,-0.086088 -0.301183,-0.1202223 v -0.015059 q 0.327536,-0.041413 0.492183,-0.2110792 0.164772,-0.1696666 0.164772,-0.4448727 0,-0.2394407 -0.112065,-0.4241664 -0.11194,-0.1847257 -0.342596,-0.2893869 -0.23053,-0.1045357 -0.590068,-0.1045357 -0.218358,0 -0.403836,0.034887 -0.185353,0.034762 -0.354769,0.1157046 v 0.2936536 q 0.171298,-0.084708 0.372714,-0.1327716 0.201416,-0.047938 0.389656,-0.047938 0.376479,0 0.544012,0.1499641 0.167533,0.1499642 0.167533,0.4101112 0,0.179204 -0.09324,0.2895123 -0.09312,0.1103084 -0.2673,0.162137 -0.174059,0.051954 -0.41877,0.051954 h -0.27483 v 0.2673001 h 0.276712 q 0.224005,0 0.380244,0.066386 0.156239,0.066511 0.23806,0.1869846 0.08195,0.1204733 0.08195,0.2856221 0,0.2105773 -0.139297,0.3254034 -0.139297,0.1148261 -0.378362,0.1148261 -0.146826,0 -0.2673,-0.030118 -0.120473,-0.030118 -0.225887,-0.082825 -0.105414,-0.052707 -0.210828,-0.1223556 l -0.158121,0.214593 q 0.150591,0.1167085 0.367067,0.2014163 0.216475,0.084708 0.491305,0.084708 0.421656,0 0.632484,-0.1931338 0.210829,-0.1931337 0.210829,-0.492309 0,-0.1856042 -0.07153,-0.3218896 -0.07153,-0.1362854 -0.199534,-0.2224991 z" />
    </g>
  </g>
</svg>
