M48
; DRILL file {KiCad 7.0.1} date Mon Apr 10 02:20:32 2023
; FORMAT={-:-/ absolute / metric / decimal}
; #@! TF.CreationDate,2023-04-10T02:20:32+01:00
; #@! TF.GenerationSoftware,Kicad,Pcbnew,7.0.1
; #@! TF.FileFunction,Plated,1,2,PTH
FMAT,2
METRIC
; #@! TA.AperFunction,Plated,PTH,ComponentDrill
T1C1.000
; #@! TA.AperFunction,Plated,PTH,ComponentDrill
T2C3.000
%
G90
G05
T1
X111.58Y-63.84
X111.58Y-68.84
X114.12Y-63.84
X114.12Y-68.84
X121.49Y-84.66
X121.49Y-87.2
X121.49Y-89.74
X121.49Y-92.28
X126.49Y-80.61
X129.03Y-80.61
X131.49Y-84.66
X131.49Y-87.2
X131.49Y-89.74
X131.49Y-92.28
X141.49Y-84.66
X141.49Y-87.2
X141.49Y-89.74
X141.49Y-92.28
X147.665Y-59.14
X147.665Y-61.68
X151.49Y-84.66
X151.49Y-87.2
X151.49Y-89.74
X151.49Y-92.28
T2
X112.45Y-93.24
X134.29Y-80.14
X157.19Y-59.57
X157.71Y-92.75
T0
M30
