%TF.GenerationSoftware,KiCad,Pcbnew,7.0.1*%
%TF.CreationDate,2023-04-10T02:20:08+01:00*%
%TF.SameCoordinates,Original*%
%TF.FileFunction,Copper,L1,Top*%
%TF.FilePolarity,Positive*%
%FSLAX46Y46*%
G04 Gerber Fmt 4.6, Leading zero omitted, Abs format (unit mm)*
G04 Created by KiCad (PCBNEW 7.0.1) date 2023-04-10 02:20:08*
%MOMM*%
%LPD*%
G01*
G04 APERTURE LIST*
%TA.AperFunction,NonConductor*%
%ADD10C,0.400000*%
%TD*%
%ADD11C,0.400000*%
%TA.AperFunction,NonConductor*%
%ADD12C,0.200000*%
%TD*%
%TA.AperFunction,SMDPad,CuDef*%
%ADD13R,2.000000X1.700000*%
%TD*%
%TA.AperFunction,ComponentPad*%
%ADD14C,3.200000*%
%TD*%
%TA.AperFunction,ComponentPad*%
%ADD15O,1.700000X1.700000*%
%TD*%
%TA.AperFunction,SMDPad,CuDef*%
%ADD16R,1.700000X2.000000*%
%TD*%
%TA.AperFunction,SMDPad,CuDef*%
%ADD17R,3.000000X1.600000*%
%TD*%
%TA.AperFunction,SMDPad,CuDef*%
%ADD18R,2.400000X1.200000*%
%TD*%
%TA.AperFunction,SMDPad,CuDef*%
%ADD19C,1.200000*%
%TD*%
%TA.AperFunction,SMDPad,CuDef*%
%ADD20R,3.000000X3.000000*%
%TD*%
%TA.AperFunction,Conductor*%
%ADD21C,0.400000*%
%TD*%
G04 APERTURE END LIST*
D10*
X149330000Y-58460000D02*
X149330000Y-56460000D01*
X148330000Y-57460000D02*
X150330000Y-57460000D01*
D11*
D10*
X150302857Y-60977619D02*
X150588571Y-61072857D01*
X150588571Y-61072857D02*
X150683809Y-61168095D01*
X150683809Y-61168095D02*
X150779047Y-61358571D01*
X150779047Y-61358571D02*
X150779047Y-61644285D01*
X150779047Y-61644285D02*
X150683809Y-61834761D01*
X150683809Y-61834761D02*
X150588571Y-61930000D01*
X150588571Y-61930000D02*
X150398095Y-62025238D01*
X150398095Y-62025238D02*
X149636190Y-62025238D01*
X149636190Y-62025238D02*
X149636190Y-60025238D01*
X149636190Y-60025238D02*
X150302857Y-60025238D01*
X150302857Y-60025238D02*
X150493333Y-60120476D01*
X150493333Y-60120476D02*
X150588571Y-60215714D01*
X150588571Y-60215714D02*
X150683809Y-60406190D01*
X150683809Y-60406190D02*
X150683809Y-60596666D01*
X150683809Y-60596666D02*
X150588571Y-60787142D01*
X150588571Y-60787142D02*
X150493333Y-60882380D01*
X150493333Y-60882380D02*
X150302857Y-60977619D01*
X150302857Y-60977619D02*
X149636190Y-60977619D01*
X152493333Y-62025238D02*
X152493333Y-60977619D01*
X152493333Y-60977619D02*
X152398095Y-60787142D01*
X152398095Y-60787142D02*
X152207619Y-60691904D01*
X152207619Y-60691904D02*
X151826666Y-60691904D01*
X151826666Y-60691904D02*
X151636190Y-60787142D01*
X152493333Y-61930000D02*
X152302857Y-62025238D01*
X152302857Y-62025238D02*
X151826666Y-62025238D01*
X151826666Y-62025238D02*
X151636190Y-61930000D01*
X151636190Y-61930000D02*
X151540952Y-61739523D01*
X151540952Y-61739523D02*
X151540952Y-61549047D01*
X151540952Y-61549047D02*
X151636190Y-61358571D01*
X151636190Y-61358571D02*
X151826666Y-61263333D01*
X151826666Y-61263333D02*
X152302857Y-61263333D01*
X152302857Y-61263333D02*
X152493333Y-61168095D01*
X153160000Y-60691904D02*
X153921904Y-60691904D01*
X153445714Y-60025238D02*
X153445714Y-61739523D01*
X153445714Y-61739523D02*
X153540952Y-61930000D01*
X153540952Y-61930000D02*
X153731428Y-62025238D01*
X153731428Y-62025238D02*
X153921904Y-62025238D01*
D12*
X140710000Y-71060000D02*
X139945000Y-71060000D01*
X139945000Y-73260000D01*
X140810000Y-73260000D01*
X140800000Y-76930000D01*
X136155000Y-76930000D01*
X136170000Y-69460000D01*
X132400000Y-69450000D01*
X132405000Y-76930000D01*
X128290000Y-76930000D01*
X128290000Y-73260000D01*
X129145000Y-73260000D01*
X129145000Y-71060000D01*
X128370000Y-71060000D01*
X128380000Y-67740000D01*
X132510000Y-67740000D01*
X132510000Y-64550000D01*
X137310000Y-64550000D01*
X137310000Y-62690000D01*
X140710000Y-62690000D01*
X140710000Y-71060000D01*
%TA.AperFunction,NonConductor*%
G36*
X140710000Y-71060000D02*
G01*
X139945000Y-71060000D01*
X139945000Y-73260000D01*
X140810000Y-73260000D01*
X140800000Y-76930000D01*
X136155000Y-76930000D01*
X136170000Y-69460000D01*
X132400000Y-69450000D01*
X132405000Y-76930000D01*
X128290000Y-76930000D01*
X128290000Y-73260000D01*
X129145000Y-73260000D01*
X129145000Y-71060000D01*
X128370000Y-71060000D01*
X128380000Y-67740000D01*
X132510000Y-67740000D01*
X132510000Y-64550000D01*
X137310000Y-64550000D01*
X137310000Y-62690000D01*
X140710000Y-62690000D01*
X140710000Y-71060000D01*
G37*
%TD.AperFunction*%
D13*
%TO.P,R_Led5,1*%
%TO.N,/Led5*%
X147130000Y-66690000D03*
%TO.P,R_Led5,2*%
%TO.N,Net-(Led5-A)*%
X151130000Y-66690000D03*
%TD*%
%TO.P,R_Led3,1*%
%TO.N,/Led3*%
X147130000Y-76685000D03*
%TO.P,R_Led3,2*%
%TO.N,Net-(Led3-A)*%
X151130000Y-76685000D03*
%TD*%
D14*
%TO.P,REF\u002A\u002A,*%
%TO.N,*%
X112450000Y-93240000D03*
%TD*%
D15*
%TO.P,Conn_Buzzer1,1,Pin_1*%
%TO.N,/Buzzer*%
X126490000Y-80610000D03*
%TO.P,Conn_Buzzer1,2,Pin_2*%
%TO.N,PWR_GND*%
X129030000Y-80610000D03*
%TD*%
D16*
%TO.P,Led1,1,K*%
%TO.N,PWR_GND*%
X113670000Y-89360000D03*
%TO.P,Led1,2,A*%
%TO.N,Net-(Led1-A)*%
X113670000Y-85360000D03*
%TD*%
D13*
%TO.P,Led4,1,K*%
%TO.N,PWR_GND*%
X158680000Y-71672500D03*
%TO.P,Led4,2,A*%
%TO.N,Net-(Led4-A)*%
X154680000Y-71672500D03*
%TD*%
%TO.P,R_Battery+1,1*%
%TO.N,/BatteryCharge*%
X115000000Y-59420000D03*
%TO.P,R_Battery+1,2*%
%TO.N,/Battery+*%
X111000000Y-59420000D03*
%TD*%
D14*
%TO.P,REF\u002A\u002A,*%
%TO.N,*%
X157190000Y-59570000D03*
%TD*%
D15*
%TO.P,I2C_3,1,Pin_1*%
%TO.N,/SDA*%
X131490000Y-92280000D03*
%TO.P,I2C_3,2,Pin_2*%
%TO.N,/SCL*%
X131490000Y-89740000D03*
%TO.P,I2C_3,3,Pin_3*%
%TO.N,/3.3V*%
X131490000Y-87200000D03*
%TO.P,I2C_3,4,Pin_4*%
%TO.N,PWR_GND*%
X131490000Y-84660000D03*
%TD*%
D13*
%TO.P,Led5,1,K*%
%TO.N,PWR_GND*%
X158680000Y-66670000D03*
%TO.P,Led5,2,A*%
%TO.N,Net-(Led5-A)*%
X154680000Y-66670000D03*
%TD*%
%TO.P,SDA_PullUp1,1*%
%TO.N,/SDA*%
X116430000Y-75980000D03*
%TO.P,SDA_PullUp1,2*%
%TO.N,/3.3V*%
X120430000Y-75980000D03*
%TD*%
%TO.P,SCL_PullUp1,1*%
%TO.N,/3.3V*%
X122510000Y-80180000D03*
%TO.P,SCL_PullUp1,2*%
%TO.N,/SCL*%
X118510000Y-80180000D03*
%TD*%
D15*
%TO.P,Conn_Battery1,1,Pin_1*%
%TO.N,/Battery+*%
X147665000Y-59140000D03*
%TO.P,Conn_Battery1,2,Pin_2*%
%TO.N,PWR_GND*%
X147665000Y-61680000D03*
%TD*%
D13*
%TO.P,R_Led2,1*%
%TO.N,/Led2*%
X147130000Y-81685000D03*
%TO.P,R_Led2,2*%
%TO.N,Net-(Led2-A)*%
X151130000Y-81685000D03*
%TD*%
%TO.P,R_Battery-1,1*%
%TO.N,/BatteryCharge*%
X118000000Y-59420000D03*
%TO.P,R_Battery-1,2*%
%TO.N,PWR_GND*%
X122000000Y-59420000D03*
%TD*%
%TO.P,Led3,1,K*%
%TO.N,PWR_GND*%
X158680000Y-76675000D03*
%TO.P,Led3,2,A*%
%TO.N,Net-(Led3-A)*%
X154680000Y-76675000D03*
%TD*%
D16*
%TO.P,Button1PullDown2,1*%
%TO.N,/Remote_2*%
X117990000Y-64850000D03*
%TO.P,Button1PullDown2,2*%
%TO.N,PWR_GND*%
X117990000Y-68850000D03*
%TD*%
D15*
%TO.P,I2C_2,1,Pin_1*%
%TO.N,/SDA*%
X141490000Y-92280000D03*
%TO.P,I2C_2,2,Pin_2*%
%TO.N,/SCL*%
X141490000Y-89740000D03*
%TO.P,I2C_2,3,Pin_3*%
%TO.N,/3.3V*%
X141490000Y-87200000D03*
%TO.P,I2C_2,4,Pin_4*%
%TO.N,PWR_GND*%
X141490000Y-84660000D03*
%TD*%
%TO.P,I2C_4,1,Pin_1*%
%TO.N,/SDA*%
X121490000Y-92280000D03*
%TO.P,I2C_4,2,Pin_2*%
%TO.N,/SCL*%
X121490000Y-89740000D03*
%TO.P,I2C_4,3,Pin_3*%
%TO.N,/3.3V*%
X121490000Y-87200000D03*
%TO.P,I2C_4,4,Pin_4*%
%TO.N,PWR_GND*%
X121490000Y-84660000D03*
%TD*%
D16*
%TO.P,R_Led1,1*%
%TO.N,/Led1*%
X113670000Y-78330000D03*
%TO.P,R_Led1,2*%
%TO.N,Net-(Led1-A)*%
X113670000Y-82330000D03*
%TD*%
D14*
%TO.P,REF\u002A\u002A,*%
%TO.N,*%
X134290000Y-80140000D03*
%TD*%
D13*
%TO.P,R_Led4,1*%
%TO.N,/Led4*%
X147130000Y-71687500D03*
%TO.P,R_Led4,2*%
%TO.N,Net-(Led4-A)*%
X151130000Y-71687500D03*
%TD*%
%TO.P,Led2,1,K*%
%TO.N,PWR_GND*%
X158680000Y-81680000D03*
%TO.P,Led2,2,A*%
%TO.N,Net-(Led2-A)*%
X154680000Y-81680000D03*
%TD*%
D15*
%TO.P,Button_Remote2,1,Pin_1*%
%TO.N,/Remote_2*%
X114120000Y-68840000D03*
%TO.P,Button_Remote2,2,Pin_2*%
%TO.N,PWR_GND*%
X111580000Y-68840000D03*
%TD*%
D14*
%TO.P,REF\u002A\u002A,*%
%TO.N,*%
X157710000Y-92750000D03*
%TD*%
D15*
%TO.P,I2C_1,1,Pin_1*%
%TO.N,/SDA*%
X151490000Y-92280000D03*
%TO.P,I2C_1,2,Pin_2*%
%TO.N,/SCL*%
X151490000Y-89740000D03*
%TO.P,I2C_1,3,Pin_3*%
%TO.N,/3.3V*%
X151490000Y-87200000D03*
%TO.P,I2C_1,4,Pin_4*%
%TO.N,PWR_GND*%
X151490000Y-84660000D03*
%TD*%
D16*
%TO.P,Button1PullDown1,1*%
%TO.N,/Remote_1*%
X121170000Y-62080000D03*
%TO.P,Button1PullDown1,2*%
%TO.N,PWR_GND*%
X121170000Y-66080000D03*
%TD*%
D17*
%TO.P,M1,1,D0*%
%TO.N,/BatteryCharge*%
X125930000Y-59140000D03*
%TO.P,M1,2,D1*%
%TO.N,/Remote_1*%
X125930000Y-61680000D03*
%TO.P,M1,3,D2*%
%TO.N,/Remote_2*%
X125930000Y-64220000D03*
%TO.P,M1,4,D3*%
%TO.N,/Led1*%
X125930000Y-66760000D03*
%TO.P,M1,5,D4*%
%TO.N,/SDA*%
X125930000Y-69300000D03*
%TO.P,M1,6,D5*%
%TO.N,/SCL*%
X125930000Y-71840000D03*
%TO.P,M1,7,D6*%
%TO.N,/Buzzer*%
X125930000Y-74380000D03*
%TO.P,M1,8,D7*%
%TO.N,/Led2*%
X143165000Y-74380000D03*
%TO.P,M1,9,D8*%
%TO.N,/Led3*%
X143165000Y-71840000D03*
%TO.P,M1,10,D9*%
%TO.N,/Led4*%
X143165000Y-69300000D03*
%TO.P,M1,11,D10*%
%TO.N,/Led5*%
X143165000Y-66760000D03*
%TO.P,M1,12,3V3*%
%TO.N,/3.3V*%
X143165000Y-64220000D03*
%TO.P,M1,13,GND*%
%TO.N,PWR_GND*%
X143165000Y-61680000D03*
%TO.P,M1,14,5V*%
%TO.N,unconnected-(M1-5V-Pad14)*%
X143165000Y-59140000D03*
D18*
%TO.P,M1,15,BAT_GND*%
%TO.N,PWR_GND*%
X129945000Y-64460000D03*
%TO.P,M1,16,BAT_VIN*%
%TO.N,/Battery+*%
X129945000Y-66560000D03*
D19*
%TO.P,M1,17,MTDI*%
%TO.N,unconnected-(M1-MTDI-Pad17)*%
X133275000Y-58080000D03*
%TO.P,M1,18,EN*%
%TO.N,unconnected-(M1-EN-Pad18)*%
X133275000Y-60620000D03*
%TO.P,M1,19,MTMS*%
%TO.N,unconnected-(M1-MTMS-Pad19)*%
X133275000Y-63160000D03*
%TO.P,M1,20,MTCK*%
%TO.N,unconnected-(M1-MTCK-Pad20)*%
X135815000Y-63160000D03*
%TO.P,M1,21,GND*%
%TO.N,PWR_GND*%
X135815000Y-60620000D03*
%TO.P,M1,22,MTDO*%
%TO.N,unconnected-(M1-MTDO-Pad22)*%
X135815000Y-58080000D03*
D20*
%TO.P,M1,23,THERMAL*%
%TO.N,PWR_GND*%
X137045000Y-67510000D03*
%TD*%
D15*
%TO.P,Button_Remote1,1,Pin_1*%
%TO.N,/Remote_1*%
X114120000Y-63840000D03*
%TO.P,Button_Remote1,2,Pin_2*%
%TO.N,PWR_GND*%
X111580000Y-63840000D03*
%TD*%
D21*
%TO.N,PWR_GND*%
X138840000Y-84660000D02*
X151490000Y-84660000D01*
X138840000Y-69305000D02*
X138840000Y-84660000D01*
X137045000Y-67510000D02*
X138840000Y-69305000D01*
X130740000Y-78900000D02*
X129030000Y-80610000D01*
X130740000Y-70120050D02*
X130740000Y-78900000D01*
%TO.N,/Buzzer*%
X123660000Y-77780000D02*
X126490000Y-80610000D01*
X124210000Y-74380000D02*
X123660000Y-74930000D01*
X126930000Y-74380000D02*
X124210000Y-74380000D01*
X123660000Y-74930000D02*
X123660000Y-77780000D01*
%TO.N,/Battery+*%
X113560000Y-56860000D02*
X126940000Y-56860000D01*
X130824950Y-59350000D02*
X129430000Y-59350000D01*
X129430000Y-59350000D02*
X126940000Y-56860000D01*
X111000000Y-59420000D02*
X113560000Y-56860000D01*
X140445000Y-57985000D02*
X140890000Y-57540000D01*
X140445000Y-58685000D02*
X140445000Y-57985000D01*
X139780000Y-59350000D02*
X140445000Y-58685000D01*
X146065000Y-57540000D02*
X147665000Y-59140000D01*
X130824950Y-59350000D02*
X139780000Y-59350000D01*
X140890000Y-57540000D02*
X146065000Y-57540000D01*
%TO.N,PWR_GND*%
X155460000Y-63320000D02*
X158680000Y-66540000D01*
X158680000Y-66540000D02*
X158680000Y-66670000D01*
X147665000Y-61680000D02*
X149305000Y-63320000D01*
X149305000Y-63320000D02*
X155460000Y-63320000D01*
%TO.N,/3.3V*%
X152692081Y-87200000D02*
X151490000Y-87200000D01*
X155087914Y-64220000D02*
X156650000Y-65782086D01*
X142165000Y-64220000D02*
X155087914Y-64220000D01*
X156650000Y-65782086D02*
X156650000Y-83242081D01*
X156650000Y-83242081D02*
X152692081Y-87200000D01*
%TO.N,PWR_GND*%
X142165000Y-61680000D02*
X147665000Y-61680000D01*
X117260000Y-68850000D02*
X117990000Y-68850000D01*
X114170000Y-61250000D02*
X119080000Y-61250000D01*
X111580000Y-87270000D02*
X113670000Y-89360000D01*
X130740000Y-70120050D02*
X133350050Y-67510000D01*
X111700000Y-74410000D02*
X117260000Y-68850000D01*
X118550000Y-94240000D02*
X151722032Y-94240000D01*
X121490000Y-84660000D02*
X131490000Y-84660000D01*
X120910000Y-59420000D02*
X122000000Y-59420000D01*
X111580000Y-74410000D02*
X111700000Y-74410000D01*
X142165000Y-61680000D02*
X137045000Y-66800000D01*
X118180000Y-68850000D02*
X120950000Y-66080000D01*
X158680000Y-87282032D02*
X151722032Y-94240000D01*
X141490000Y-84660000D02*
X151490000Y-84660000D01*
X137045000Y-66800000D02*
X137045000Y-67510000D01*
X158680000Y-81680000D02*
X158680000Y-87282032D01*
X111580000Y-63840000D02*
X111580000Y-68840000D01*
X111580000Y-63840000D02*
X114170000Y-61250000D01*
X111580000Y-74410000D02*
X111580000Y-87270000D01*
X117990000Y-68850000D02*
X118180000Y-68850000D01*
X158680000Y-81680000D02*
X158680000Y-76675000D01*
X113670000Y-89360000D02*
X118550000Y-94240000D01*
X111580000Y-68840000D02*
X111580000Y-74410000D01*
X137045000Y-67510000D02*
X133350050Y-67510000D01*
X120950000Y-66080000D02*
X121170000Y-66080000D01*
X119080000Y-61250000D02*
X120910000Y-59420000D01*
X158680000Y-71672500D02*
X158680000Y-66670000D01*
X158680000Y-76675000D02*
X158680000Y-71672500D01*
X131490000Y-84660000D02*
X141490000Y-84660000D01*
%TO.N,/Remote_1*%
X121170000Y-62080000D02*
X115880000Y-62080000D01*
X126530000Y-62080000D02*
X121170000Y-62080000D01*
X115880000Y-62080000D02*
X114120000Y-63840000D01*
X126930000Y-61680000D02*
X126530000Y-62080000D01*
%TO.N,/Remote_2*%
X126930000Y-64220000D02*
X118620000Y-64220000D01*
X117990000Y-64970000D02*
X114120000Y-68840000D01*
X118590000Y-64490000D02*
X118470000Y-64490000D01*
X117990000Y-64850000D02*
X117990000Y-64970000D01*
X118620000Y-64220000D02*
X117990000Y-64850000D01*
%TO.N,Net-(Led1-A)*%
X113670000Y-82330000D02*
X113670000Y-85360000D01*
%TO.N,Net-(Led2-A)*%
X151130000Y-81685000D02*
X154675000Y-81685000D01*
X154675000Y-81685000D02*
X154680000Y-81680000D01*
%TO.N,Net-(Led3-A)*%
X154680000Y-76675000D02*
X151140000Y-76675000D01*
X151140000Y-76675000D02*
X151130000Y-76685000D01*
%TO.N,Net-(Led4-A)*%
X154665000Y-71687500D02*
X154680000Y-71672500D01*
X151130000Y-71687500D02*
X154665000Y-71687500D01*
%TO.N,Net-(Led5-A)*%
X154680000Y-66670000D02*
X151150000Y-66670000D01*
X151150000Y-66670000D02*
X151130000Y-66690000D01*
%TO.N,/Led1*%
X117370000Y-70950000D02*
X113670000Y-74650000D01*
X119410000Y-70950000D02*
X117370000Y-70950000D01*
X126930000Y-66760000D02*
X123600000Y-66760000D01*
X113670000Y-74650000D02*
X113670000Y-78330000D01*
X123600000Y-66760000D02*
X119410000Y-70950000D01*
%TO.N,/Led2*%
X146955000Y-81685000D02*
X145380000Y-80110000D01*
X144670000Y-74380000D02*
X142165000Y-74380000D01*
X147130000Y-81685000D02*
X146955000Y-81685000D01*
X145380000Y-75090000D02*
X144670000Y-74380000D01*
X145380000Y-80110000D02*
X145380000Y-75090000D01*
%TO.N,/Led3*%
X142165000Y-71840000D02*
X144032500Y-71840000D01*
X144032500Y-71840000D02*
X147130000Y-74937500D01*
X147130000Y-74937500D02*
X147130000Y-76685000D01*
%TO.N,/SCL*%
X126340000Y-72430000D02*
X121130000Y-72430000D01*
X121130000Y-72430000D02*
X118510000Y-75050000D01*
X118510000Y-75050000D02*
X118510000Y-80180000D01*
X121490000Y-89740000D02*
X131490000Y-89740000D01*
X131490000Y-89740000D02*
X141490000Y-89740000D01*
X141490000Y-89740000D02*
X151490000Y-89740000D01*
X126930000Y-71840000D02*
X126340000Y-72430000D01*
X118510000Y-86760000D02*
X121490000Y-89740000D01*
X118510000Y-80180000D02*
X118510000Y-86760000D01*
%TO.N,/3.3V*%
X119720000Y-82970000D02*
X122510000Y-80180000D01*
X141490000Y-87200000D02*
X151490000Y-87200000D01*
X119720000Y-85430000D02*
X119720000Y-82970000D01*
X122510000Y-80180000D02*
X122510000Y-78060000D01*
X131490000Y-87200000D02*
X141490000Y-87200000D01*
X121490000Y-87200000D02*
X131490000Y-87200000D01*
X121490000Y-87200000D02*
X119720000Y-85430000D01*
X122510000Y-78060000D02*
X120430000Y-75980000D01*
%TO.N,/SDA*%
X131490000Y-92280000D02*
X141490000Y-92280000D01*
X122670000Y-69300000D02*
X126930000Y-69300000D01*
X116430000Y-87220000D02*
X121490000Y-92280000D01*
X141490000Y-92280000D02*
X151490000Y-92280000D01*
X116430000Y-75980000D02*
X116430000Y-87220000D01*
X116430000Y-75540000D02*
X122670000Y-69300000D01*
X121490000Y-92280000D02*
X131490000Y-92280000D01*
X116430000Y-75980000D02*
X116430000Y-75540000D01*
%TO.N,/BatteryCharge*%
X126930000Y-59140000D02*
X125530000Y-57740000D01*
X118000000Y-59420000D02*
X115000000Y-59420000D01*
X119680000Y-57740000D02*
X118000000Y-59420000D01*
X125530000Y-57740000D02*
X119680000Y-57740000D01*
%TO.N,/Battery+*%
X130850000Y-66560000D02*
X129945000Y-66560000D01*
X131810000Y-60335050D02*
X130824950Y-59350000D01*
X131810000Y-60335050D02*
X131810000Y-65600000D01*
X131810000Y-65600000D02*
X130850000Y-66560000D01*
%TO.N,/Led4*%
X144742500Y-69300000D02*
X147130000Y-71687500D01*
X142165000Y-69300000D02*
X144742500Y-69300000D01*
%TO.N,/Led5*%
X142235000Y-66690000D02*
X142165000Y-66760000D01*
X147130000Y-66690000D02*
X142235000Y-66690000D01*
%TD*%
M02*
